<svg width="540" height="711" viewBox="0 0 540 711" fill="none" xmlns="http://www.w3.org/2000/svg">
<path fill-rule="evenodd" clip-rule="evenodd" d="M270 0C384.052 0 540 176.738 540 394.754C540 810.155 0 821.46 0 394.754C0 176.738 155.949 0 270 0Z" fill="#03071E"/>
<path d="M175.938 264.609H188.594C223.094 264.609 243.672 276.281 250.328 299.625C252.578 307.312 253.703 316.125 253.703 326.062V456H175.938V264.609ZM72.1562 326.062C72.1562 305.344 76.8906 290.156 86.3594 280.5C96.7656 269.906 113.734 264.609 137.266 264.609H149.922V456H72.1562V326.062Z" fill="#FFBA08"/>
<path d="M175.938 264.609V263.609H174.938V264.609H175.938ZM250.328 299.625L249.366 299.899L249.368 299.906L250.328 299.625ZM253.703 456V457H254.703V456H253.703ZM175.938 456H174.938V457H175.938V456ZM86.3594 280.5L85.646 279.799L85.6454 279.8L86.3594 280.5ZM149.922 264.609H150.922V263.609H149.922V264.609ZM149.922 456V457H150.922V456H149.922ZM72.1562 456H71.1562V457H72.1562V456ZM175.938 265.609H188.594V263.609H175.938V265.609ZM188.594 265.609C205.745 265.609 219.324 268.513 229.409 274.233C239.463 279.936 246.108 288.472 249.366 299.899L251.29 299.351C247.892 287.434 240.92 278.463 230.396 272.493C219.903 266.542 205.943 263.609 188.594 263.609V265.609ZM249.368 299.906C251.586 307.483 252.703 316.198 252.703 326.062H254.703C254.703 316.052 253.57 307.142 251.288 299.344L249.368 299.906ZM252.703 326.062V456H254.703V326.062H252.703ZM253.703 455H175.938V457H253.703V455ZM176.938 456V264.609H174.938V456H176.938ZM73.1562 326.062C73.1562 305.469 77.8651 290.591 87.0734 281.2L85.6454 279.8C75.9161 289.722 71.1562 305.218 71.1562 326.062H73.1562ZM87.0728 281.201C97.2061 270.885 113.851 265.609 137.266 265.609V263.609C113.618 263.609 96.3252 268.928 85.646 279.799L87.0728 281.201ZM137.266 265.609H149.922V263.609H137.266V265.609ZM148.922 264.609V456H150.922V264.609H148.922ZM149.922 455H72.1562V457H149.922V455ZM73.1562 456V326.062H71.1562V456H73.1562Z" fill="#FAA307"/>
<path d="M375.234 324.234C375.234 303.234 380.578 288.094 391.266 278.812C402.234 269.344 419.812 264.609 444 264.609H452.578V365.719C452.578 409.312 440.109 437.25 415.172 449.531C406.453 453.844 396 456 383.812 456H375.234V324.234ZM342.047 456C318.516 456 300.984 447.797 289.453 431.391C278.766 416.203 273.422 394.312 273.422 365.719V264.609H282C306.188 264.609 323.766 269.344 334.734 278.812C345.422 288.094 350.766 303.234 350.766 324.234V456H342.047Z" fill="#FFBA08"/>
<path d="M391.266 278.812L390.612 278.056L390.61 278.057L391.266 278.812ZM452.578 264.609H453.578V263.609H452.578V264.609ZM415.172 449.531L414.73 448.634L414.729 448.635L415.172 449.531ZM375.234 456H374.234V457H375.234V456ZM289.453 431.391L290.271 430.816L290.271 430.815L289.453 431.391ZM273.422 264.609V263.609H272.422V264.609H273.422ZM334.734 278.812L335.39 278.057L335.388 278.056L334.734 278.812ZM350.766 456V457H351.766V456H350.766ZM376.234 324.234C376.234 303.382 381.541 288.582 391.921 279.568L390.61 278.057C379.615 287.605 374.234 303.087 374.234 324.234H376.234ZM391.919 279.569C402.619 270.333 419.904 265.609 444 265.609V263.609C419.721 263.609 401.85 268.354 390.612 278.056L391.919 279.569ZM444 265.609H452.578V263.609H444V265.609ZM451.578 264.609V365.719H453.578V264.609H451.578ZM451.578 365.719C451.578 409.169 439.155 436.605 414.73 448.634L415.614 450.428C441.064 437.895 453.578 409.456 453.578 365.719H451.578ZM414.729 448.635C406.178 452.864 395.884 455 383.812 455V457C396.116 457 406.728 454.823 415.615 450.428L414.729 448.635ZM383.812 455H375.234V457H383.812V455ZM376.234 456V324.234H374.234V456H376.234ZM342.047 455C318.777 455 301.581 446.907 290.271 430.816L288.635 431.966C300.388 448.687 318.255 457 342.047 457V455ZM290.271 430.815C279.75 415.865 274.422 394.21 274.422 365.719H272.422C272.422 394.415 277.781 416.542 288.635 431.966L290.271 430.815ZM274.422 365.719V264.609H272.422V365.719H274.422ZM273.422 265.609H282V263.609H273.422V265.609ZM282 265.609C306.096 265.609 323.381 270.333 334.081 279.569L335.388 278.056C324.15 268.354 306.279 263.609 282 263.609V265.609ZM334.079 279.568C344.459 288.582 349.766 303.382 349.766 324.234H351.766C351.766 303.087 346.385 287.605 335.39 278.057L334.079 279.568ZM349.766 324.234V456H351.766V324.234H349.766ZM350.766 455H342.047V457H350.766V455Z" fill="#FAA307"/>
</svg>
